<svg id="vuesax_linear_setting-2" data-name="vuesax/linear/setting-2" xmlns="http://www.w3.org/2000/svg" width="25" height="25" viewBox="0 0 25 25">
  <path id="Background" d="M0,0H25V25H0Z" fill="#acacad" opacity="0"/>
  <g id="Group_50817" data-name="Group 50817" transform="translate(5.001 3)">
    <g id="Group_50817-2" data-name="Group 50817" transform="translate(0 12.109)">
      <path id="Path_54469" data-name="Path 54469" d="M73.609,317.891a.781.781,0,0,1-.781-.781,5.553,5.553,0,0,0-5.547-5.547H66.109a5.553,5.553,0,0,0-5.547,5.547.781.781,0,0,1-1.562,0A7.117,7.117,0,0,1,66.109,310h1.172a7.117,7.117,0,0,1,7.109,7.109A.781.781,0,0,1,73.609,317.891Z" transform="translate(-59 -310)" fill="#acacad"/>
    </g>
    <g id="Group_50818" data-name="Group 50818" transform="translate(2.344)">
      <path id="Path_54470" data-name="Path 54470" d="M124.273,10.547a5.273,5.273,0,1,1,5.273-5.273A5.279,5.279,0,0,1,124.273,10.547Zm0-8.984a3.711,3.711,0,1,0,3.711,3.711A3.715,3.715,0,0,0,124.273,1.562Z" transform="translate(-119)" fill="#acacad"/>
    </g>
  </g>
</svg>
