<svg id="Group_45263" data-name="Group 45263" xmlns="http://www.w3.org/2000/svg" width="17.722" height="17.722" viewBox="0 0 17.722 17.722">
  <path id="Path_41484" data-name="Path 41484" d="M4.154,17.722h9.415a4.158,4.158,0,0,0,4.154-4.154V4.154A4.158,4.158,0,0,0,13.568,0H4.154A4.158,4.158,0,0,0,0,4.154v9.415A4.158,4.158,0,0,0,4.154,17.722ZM13.568,1.385a2.772,2.772,0,0,1,2.769,2.769v9.415a2.772,2.772,0,0,1-2.769,2.769H4.154a2.772,2.772,0,0,1-2.769-2.769V4.154A2.772,2.772,0,0,1,4.154,1.385Z" fill="#2b2b2b"/>
  <path id="Path_41485" data-name="Path 41485" d="M231.865,129.415a.692.692,0,0,0,.692-.692v-5.3a.692.692,0,1,0-1.385,0v5.3A.692.692,0,0,0,231.865,129.415Zm0-9.415a.865.865,0,1,1-.865.865.865.865,0,0,1,.865-.865" transform="translate(-223.005 -115.846)" fill="#2b2b2b"/>
</svg>
