<svg id="Bus" xmlns="http://www.w3.org/2000/svg" width="15" height="15" viewBox="0 0 15 15">
  <g id="Group_53156" data-name="Group 53156" transform="translate(7.105 2.368)">
    <circle id="Ellipse_1264" data-name="Ellipse 1264" cx="0.395" cy="0.395" r="0.395" transform="translate(0)" fill="#bdbec0"/>
  </g>
  <g id="Group_53157" data-name="Group 53157" transform="translate(4.57)">
    <path id="Path_54649" data-name="Path 54649" d="M158.93,7.031a1.764,1.764,0,0,1-1.523-.88l-1.015-1.759a2.93,2.93,0,1,1,5.077,0h0l-1.016,1.759A1.764,1.764,0,0,1,158.93,7.031Zm-.508-1.466a.586.586,0,0,0,1.016,0l1.016-1.759h0a1.758,1.758,0,1,0-3.048,0l1.016,1.759Z" transform="translate(-156)" fill="#bdbec0"/>
  </g>
  <path id="Path_54650" data-name="Path 54650" d="M12.07,200H10.883a.586.586,0,0,0,0,1.172H12.07a1.76,1.76,0,0,1,1.758,1.758v3.281a.587.587,0,0,1-.586.586h-.57a1.757,1.757,0,0,0-3.314,0H5.641a1.757,1.757,0,0,0-3.314,0h-.57a.587.587,0,0,1-.586-.586v-4.453a.587.587,0,0,1,.586-.586H4.117a.586.586,0,0,0,0-1.172H1.758A1.76,1.76,0,0,0,0,201.758v4.453a1.76,1.76,0,0,0,1.758,1.758h.57a1.757,1.757,0,0,0,3.314,0H9.359a1.757,1.757,0,0,0,3.314,0h.57A1.76,1.76,0,0,0,15,206.211V202.93A2.933,2.933,0,0,0,12.07,200Zm-8.086,7.969a.586.586,0,1,1,.586-.586h0A.587.587,0,0,1,3.984,207.969Zm7.031,0a.587.587,0,0,1-.586-.586h0a.586.586,0,1,1,.586.586Z" transform="translate(0 -194.141)" fill="#bdbec0"/>
  <g id="Group_53158" data-name="Group 53158" transform="translate(2.344 8.203)">
    <path id="Path_54651" data-name="Path 54651" d="M89.727,282.344H88.672a1.761,1.761,0,0,1-1.657-1.172H80.586a.586.586,0,0,1,0-1.172H87.5a.586.586,0,0,1,.586.586.587.587,0,0,0,.586.586h1.055a.586.586,0,0,1,0,1.172Z" transform="translate(-80 -280)" fill="#bdbec0"/>
  </g>
</svg>
