<svg xmlns="http://www.w3.org/2000/svg" width="15" height="15" viewBox="0 0 15 15">
  <g id="Group_53160" data-name="Group 53160" transform="translate(0 0)">
    <path id="Path_54652" data-name="Path 54652" d="M13.242,0H1.758a1.758,1.758,0,0,0-.586,3.415v11a.586.586,0,1,0,1.172,0V9.141H12.656v5.273a.586.586,0,1,0,1.172,0v-11A1.758,1.758,0,0,0,13.242,0ZM8.086,7.969V5.859h2.93a.586.586,0,1,0,0-1.172H3.984a.586.586,0,1,0,0,1.172h2.93V7.969H2.344V3.516H12.656V7.969Zm5.156-5.625H1.758a.586.586,0,0,1,0-1.172H13.242a.586.586,0,1,1,0,1.172Z" transform="translate(0 0)" fill="#bdbec0"/>
    <path id="Path_54653" data-name="Path 54653" d="M116.586,355.516h.586v.586a.586.586,0,0,0,1.172,0v-.586h3.516v.586a.586.586,0,0,0,1.172,0v-.586h.586a.586.586,0,0,0,0-1.172h-.586v-.586A1.76,1.76,0,0,0,121.273,352H118.93a1.76,1.76,0,0,0-1.758,1.758v.586h-.586a.586.586,0,0,0,0,1.172Zm1.758-1.758a.587.587,0,0,1,.586-.586h2.344a.587.587,0,0,1,.586.586v.586h-3.516Z" transform="translate(-112.602 -341.688)" fill="#bdbec0"/>
  </g>
</svg>
