<svg id="Location" xmlns="http://www.w3.org/2000/svg" width="10.547" height="15" viewBox="0 0 10.547 15">
  <g id="Group_53152" data-name="Group 53152" transform="translate(3.281 4.102)">
    <path id="Path_54646" data-name="Path 54646" d="M189.757,142.929a.584.584,0,0,1-.414-.172l-1.172-1.172a.586.586,0,0,1,.829-.829l.758.758,1.343-1.343a.586.586,0,1,1,.829.829l-1.758,1.758A.584.584,0,0,1,189.757,142.929Z" transform="translate(-188 -140)" fill="#bdbec0"/>
  </g>
  <g id="Group_53153" data-name="Group 53153">
    <path id="Path_54647" data-name="Path 54647" d="M81.273,12.656a1.168,1.168,0,0,1-.9-.418L77.2,8.627a5.273,5.273,0,1,1,8.139,0l-3.172,3.611A1.168,1.168,0,0,1,81.273,12.656ZM78.1,7.875l3.171,3.609.012-.014,3.159-3.6a4.1,4.1,0,1,0-6.342,0Z" transform="translate(-76)" fill="#bdbec0"/>
  </g>
  <g id="Group_53154" data-name="Group 53154" transform="translate(0 10.998)">
    <path id="Path_54648" data-name="Path 54648" d="M81.273,379.409a10.375,10.375,0,0,1-3.52-.552C76.3,378.313,76,377.582,76,377.065c0-.44.226-1.075,1.3-1.6a.586.586,0,0,1,.513,1.054c-.471.229-.643.452-.643.545s.182.39.993.694a10.357,10.357,0,0,0,6.218,0c.81-.3.993-.611.993-.694s-.171-.316-.643-.545a.586.586,0,1,1,.513-1.054c1.076.524,1.3,1.158,1.3,1.6,0,.517-.3,1.248-1.753,1.792A10.375,10.375,0,0,1,81.273,379.409Z" transform="translate(-76 -375.407)" fill="#bdbec0"/>
  </g>
</svg>
