<svg id="Group_35222" data-name="Group 35222" xmlns="http://www.w3.org/2000/svg" width="45" height="45" viewBox="0 0 45 45">
  <path id="Rectangle_513" data-name="Rectangle 513" d="M0,22.5C0,13.471,0,8.957,2.167,5.714A12.857,12.857,0,0,1,5.714,2.167C8.957,0,13.471,0,22.5,0h0c9.029,0,13.543,0,16.786,2.167a12.856,12.856,0,0,1,3.547,3.547C45,8.957,45,13.471,45,22.5h0c0,9.029,0,13.543-2.167,16.786a12.855,12.855,0,0,1-3.547,3.547C36.043,45,31.529,45,22.5,45h0c-9.029,0-13.543,0-16.786-2.167a12.856,12.856,0,0,1-3.547-3.547C0,36.043,0,31.529,0,22.5Z" fill="#f7f7f7"/>
  <path id="SF_Symbol_xmark" data-name="SF Symbol / xmark" d="M.33,12.548a1.206,1.206,0,0,0,.009,1.666A1.215,1.215,0,0,0,2,14.232L7.279,8.957l5.265,5.265a1.184,1.184,0,0,0,1.675-1.675L8.954,7.282l5.265-5.274A1.189,1.189,0,0,0,14.21.342,1.2,1.2,0,0,0,12.544.333L7.279,5.6,2,.333A1.2,1.2,0,0,0,.339.342,1.206,1.206,0,0,0,.33,2.008L5.6,7.282Z" transform="translate(15.222 15.222)" fill="#75757e"/>
</svg>
