<svg xmlns="http://www.w3.org/2000/svg" width="17.955" height="18" viewBox="0 0 17.955 18">
  <g id="Group_45505" data-name="Group 45505" transform="translate(-0.001)">
    <path id="Union_14" data-name="Union 14" d="M4.323,16.851a8.643,8.643,0,0,1-.43-14.7c.188-.125.379-.241.572-.349a2.023,2.023,0,0,1,2.5.379A1.955,1.955,0,0,1,7.192,4.62a5.4,5.4,0,0,0-.555,4.833,5.182,5.182,0,0,0,5.674,3.281,2.028,2.028,0,0,1,2.172,1.295,1.963,1.963,0,0,1-.708,2.344A8.8,8.8,0,0,1,11.854,17.4a8.96,8.96,0,0,1-3.205.6A8.69,8.69,0,0,1,4.323,16.851ZM5.235,2.926a.724.724,0,0,0-.11.051c-.164.093-.328.194-.488.3a7.295,7.295,0,0,0,.357,12.406,7.415,7.415,0,0,0,6.378.462A7.328,7.328,0,0,0,13,15.276a.62.62,0,0,0,.23-.76.685.685,0,0,0-.752-.445A6.548,6.548,0,0,1,5.382,9.936a6.72,6.72,0,0,1,.678-6.044.6.6,0,0,0-.069-.784.7.7,0,0,0-.506-.23A.684.684,0,0,0,5.235,2.926Zm10.026,9.5V11.75h-.674a.673.673,0,0,1,0-1.345h.674V9.73a.673.673,0,1,1,1.346,0V10.4h.674a.673.673,0,1,1,0,1.345h-.674v.674a.673.673,0,0,1-1.346,0ZM10.145,9.865V9.191H9.472a.673.673,0,0,1,0-1.346h.674V7.171a.673.673,0,0,1,1.346,0v.674h.674a.673.673,0,1,1,0,1.346h-.674v.674a.673.673,0,1,1-1.346,0ZM9.2,3.368V2.694H8.529a.673.673,0,0,1,0-1.345H9.2V.674a.673.673,0,1,1,1.346,0v.674h.674a.673.673,0,1,1,0,1.345h-.674v.674a.673.673,0,0,1-1.346,0Z" transform="translate(0.001)" fill="#2b2b2b"/>
  </g>
</svg>
