<svg id="Group_52888" data-name="Group 52888" xmlns="http://www.w3.org/2000/svg" width="16.563" height="20" viewBox="0 0 16.563 20">
  <g id="Group_52878" data-name="Group 52878" transform="translate(4.609 7.227)">
    <circle id="Ellipse_1263" data-name="Ellipse 1263" cx="0.977" cy="0.977" r="0.977" transform="translate(0)" fill="#3ac4e4"/>
  </g>
  <g id="Group_52879" data-name="Group 52879">
    <path id="Path_54510" data-name="Path 54510" d="M55.876,20H48.687A4.692,4.692,0,0,1,44,15.313V4.687A4.692,4.692,0,0,1,48.687,0h7.189a4.692,4.692,0,0,1,4.687,4.687V15.313A4.692,4.692,0,0,1,55.876,20ZM48.687,1.563a3.128,3.128,0,0,0-3.124,3.124V15.313a3.128,3.128,0,0,0,3.124,3.124h7.189A3.128,3.128,0,0,0,59,15.313V4.687a3.128,3.128,0,0,0-3.124-3.124Z" transform="translate(-44 0)" fill="#3ac4e4"/>
  </g>
  <g id="Group_52880" data-name="Group 52880" transform="translate(8.555 3.125)">
    <path id="Path_54511" data-name="Path 54511" d="M267.063,84.844h-1.328A2.737,2.737,0,0,1,263,82.109V80.781a.781.781,0,1,1,1.563,0v1.328a1.173,1.173,0,0,0,1.172,1.172h1.328a.781.781,0,0,1,0,1.562Z" transform="translate(-263 -80)" fill="#3ac4e4"/>
  </g>
  <g id="Group_52881" data-name="Group 52881" transform="translate(4.492 13.867)">
    <path id="Path_54512" data-name="Path 54512" d="M165.172,356.563h-5.391a.781.781,0,0,1,0-1.562h5.391a.781.781,0,0,1,0,1.563Z" transform="translate(-159 -355)" fill="#3ac4e4"/>
  </g>
  <g id="Group_52882" data-name="Group 52882" transform="translate(4.492 10.859)">
    <path id="Path_54513" data-name="Path 54513" d="M165.172,279.563h-5.391a.781.781,0,0,1,0-1.562h5.391a.781.781,0,0,1,0,1.563Z" transform="translate(-159 -278)" fill="#3ac4e4"/>
  </g>
</svg>
