<svg id="vuesax_linear_setting-2" data-name="vuesax/linear/setting-2" xmlns="http://www.w3.org/2000/svg" width="25" height="25" viewBox="0 0 25 25">
  <path id="Background" d="M0,0H25V25H0Z" fill="#3ac4e4" opacity="0"/>
  <g id="Group_52887" data-name="Group 52887" transform="translate(2 3)">
    <path id="Path_54508" data-name="Path 54508" d="M15.315,20.037H4.688A4.694,4.694,0,0,1,0,15.349V8.775A4.715,4.715,0,0,1,1.845,5.047L7.158.995a4.7,4.7,0,0,1,5.686,0l5.313,4.053A4.715,4.715,0,0,1,20,8.775v6.574A4.694,4.694,0,0,1,15.315,20.037ZM10,1.6a3.122,3.122,0,0,0-1.9.638L2.793,6.29a3.144,3.144,0,0,0-1.23,2.485v6.574a3.129,3.129,0,0,0,3.125,3.125H15.315a3.129,3.129,0,0,0,3.125-3.125V8.775A3.144,3.144,0,0,0,17.21,6.29L11.9,2.237A3.122,3.122,0,0,0,10,1.6Z" transform="translate(0 -0.037)" fill="#3ac4e4"/>
    <rect id="Rectangle_19404" data-name="Rectangle 19404" width="5.47" height="1.563" rx="0.781" transform="translate(7.268 14.822)" fill="#3ac4e4"/>
  </g>
</svg>
