<svg xmlns="http://www.w3.org/2000/svg" width="18" height="18" viewBox="0 0 18 18">
  <path id="Path_41533" data-name="Path 41533" d="M47.364,34.766a9,9,0,1,0,0,12.728,9,9,0,0,0,0-12.728ZM33.286,41.13a7.7,7.7,0,0,1,.269-2.021c.295.635.723,1.183,1.015,1.835.376.837,1.387.605,1.834,1.339.4.651-.027,1.475.27,2.156.215.495.723.6,1.074.964a2.087,2.087,0,0,1,.405,1.34,12.268,12.268,0,0,0,.3,1.658.018.018,0,0,0,0,.012A7.731,7.731,0,0,1,33.286,41.13ZM41,48.844a7.759,7.759,0,0,1-1.286-.108c0-.109.006-.211.017-.281a3.447,3.447,0,0,1,.849-1.742,13.232,13.232,0,0,0,1.37-1.326,2.38,2.38,0,0,0,.313-1.836c-.214-.9-1.439-1.2-2.1-1.692-.38-.281-.718-.716-1.216-.751a3.317,3.317,0,0,1-.65-.025,1.489,1.489,0,0,0-.6-.137c-.416.055-.678.5-1.125.439a1.369,1.369,0,0,1-.957-.957c-.124-.519.287-.687.727-.734a1.247,1.247,0,0,1,.566.027c.232.086.342.313.55.428.391.215.47-.128.41-.475-.09-.52-.194-.732.27-1.09.321-.247.6-.425.545-.868-.031-.26-.173-.378-.04-.637a1.667,1.667,0,0,1,.558-.493c.466-.3,1.995-.281,1.37-1.131-.184-.25-.522-.7-.844-.757-.4-.076-.58.372-.86.57s-.853.437-1.142.121c-.39-.425.258-.565.4-.862a.58.58,0,0,0-.112-.512q.217-.092.442-.17a.627.627,0,0,0,.321.121c.269.018.522-.128.757.055.26.2.448.455.794.518a.666.666,0,0,0,.771-.477,1.437,1.437,0,0,0-.048-.643,7.667,7.667,0,0,1,4.219,1.294.369.369,0,0,0-.295.028c-.244.113-.589.4-.618.688-.033.325.446.37.674.37.342,0,.687-.153.577-.547A1.1,1.1,0,0,0,45.4,34.8a7.766,7.766,0,0,1,.723.568l-.011.011a3.6,3.6,0,0,0-.659.725.634.634,0,0,1-.464.358.894.894,0,0,0-.371.124c-.291.229-.125.779.15.945a.945.945,0,0,0,1.128-.187c.205-.233.326-.638.7-.637a.619.619,0,0,1,.435.177c.153.158.123.306.155.5.057.351.367.161.556-.016a7.72,7.72,0,0,1,.371.754c-.207.3-.372.624-.871.276-.3-.209-.482-.511-.857-.605a2.415,2.415,0,0,0-.986.059,1.926,1.926,0,0,0-1.082.37c-.27.268-.412.628-.7.9a1.431,1.431,0,0,0-.43,1.831,1.88,1.88,0,0,0,1.848,1.045c.766-.051,1.562-.5,1.54.618a2.817,2.817,0,0,0,.2,1.033,4.009,4.009,0,0,1,.13,1.013,6.348,6.348,0,0,0,.19,1.208A7.7,7.7,0,0,1,41,48.844Z" transform="translate(-32 -32.13)" fill="#2b2b2b"/>
</svg>
