<svg width="150" height="62" viewBox="0 0 150 62" fill="none" xmlns="http://www.w3.org/2000/svg">
<g clip-path="url(#clip0_2_86)">
<path d="M46.4923 30.69C43.7256 29.8525 43.2144 29.4152 43.1797 28.7604C43.1427 28.2861 43.6169 27.3769 45.4721 27.5227C46.3118 27.5898 46.8532 27.9414 47.1886 28.3347C47.5309 28.7419 48.0769 28.9108 48.5881 28.7651L49.7494 28.4342C50.7001 28.1635 51.0865 27.0252 50.4966 26.2294C49.5296 24.9199 47.6859 23.6589 44.8175 23.6589C40.2672 23.6589 38.301 26.2085 38.1922 28.6471C38.0835 31.5229 39.7583 32.8347 43.5799 34.1812C46.0204 35.0187 46.8578 35.1275 46.8925 36.1108C46.9295 37.057 45.4721 37.3856 44.1628 37.3138C43.2768 37.2606 42.2405 36.8719 41.5904 36.3213C41.1463 35.9442 40.5217 35.8748 40.0105 36.1501L38.752 36.8257C37.9609 37.2491 37.7504 38.3017 38.338 38.9819C39.6496 40.4974 42.1988 41.6842 45.0025 41.6842C49.0438 41.6842 51.8845 39.5349 51.9933 36.3676C52.102 33.7092 50.6099 31.9602 46.4946 30.6877" fill="#3E474E"/>
<path d="M56.5782 16.0171C55.0492 16.0171 53.8486 17.2178 53.8486 18.7471C53.8486 20.2764 55.0492 21.4402 56.5782 21.4402C58.1073 21.4402 59.2732 20.2394 59.2732 18.7471C59.2732 17.2549 58.0726 16.0171 56.5782 16.0171Z" fill="#3E474E"/>
<path d="M55.9328 41.4321H57.1843C58.1767 41.4321 58.9794 40.6292 58.9794 39.6367V25.6764C58.9794 24.6839 58.1767 23.881 57.1843 23.881H55.9328C54.9404 23.881 54.1377 24.6839 54.1377 25.6764V39.6367C54.1377 40.6292 54.9404 41.4321 55.9328 41.4321Z" fill="#3E474E"/>
<path d="M18.1893 32.8116C18.1639 32.5964 18.1292 32.3859 18.0829 32.1846C18.076 32.1545 18.0667 32.1267 18.0598 32.0943C18.0158 31.9116 17.9626 31.7334 17.9048 31.5599C17.8909 31.5229 17.8793 31.4835 17.8655 31.4465C17.7961 31.2591 17.7174 31.0764 17.6318 30.9005C17.6133 30.8635 17.5925 30.8265 17.574 30.7895C17.4907 30.6298 17.4005 30.4725 17.3033 30.3221C17.2895 30.3013 17.2779 30.2782 17.264 30.2596C17.1553 30.0954 17.035 29.9404 16.9101 29.7877C16.8823 29.753 16.8522 29.7183 16.8222 29.6836C16.6926 29.5332 16.5561 29.3874 16.4081 29.2486C16.4035 29.244 16.3965 29.237 16.3896 29.2324C16.2462 29.0982 16.0935 28.971 15.9362 28.8484C15.5221 28.5268 15.0641 28.2399 14.5621 27.9969C15.2168 27.4116 15.7743 26.706 16.1768 25.9216C16.2022 25.8707 16.2277 25.8198 16.2508 25.7689C16.3202 25.6232 16.385 25.4751 16.4451 25.3247C16.4613 25.2831 16.4798 25.2414 16.496 25.1975C16.5654 25.0101 16.6232 24.8181 16.6741 24.6237C16.6857 24.5797 16.6926 24.5358 16.7042 24.4918C16.7412 24.3345 16.7713 24.1749 16.7921 24.0129C16.8013 23.9551 16.8083 23.8995 16.8152 23.844C16.8384 23.6404 16.8546 23.4345 16.8546 23.2263C16.8546 19.2585 13.9421 15.9454 9.06343 15.9454H1.41573C0.633839 15.9454 0 16.5793 0 17.3613V40.0184C0 40.8004 0.633839 41.4344 1.41573 41.4344H9.7204C15.3278 41.4344 18.2402 38.0843 18.2402 33.6421C18.2402 33.4085 18.2263 33.1817 18.2032 32.9619C18.1986 32.9134 18.1939 32.8625 18.1893 32.8139M4.84169 24.4317V20.605H9.17447C11.0667 20.605 11.9041 21.8057 11.9041 23.2263C11.9041 24.6468 11.0667 25.8476 9.17447 25.8476H4.84169V24.4317ZM9.7204 36.8072H4.84169V30.4702H9.7204C11.9782 30.4702 13.1788 31.8167 13.1788 33.6375C13.1788 35.4583 11.9782 36.8048 9.7204 36.8048" fill="#3E474E"/>
<path d="M92.0778 41.1405C92.1079 41.1289 92.1403 41.1174 92.1704 41.1081L92.2421 41.078C92.4827 40.9878 92.7209 40.8837 92.9546 40.775C93.3478 40.5783 93.7434 40.3377 94.0372 40.0045C94.1644 39.8611 94.25 39.6876 94.3171 39.5094C94.3796 39.3405 94.4189 39.1647 94.4351 38.9842C94.4675 38.6256 94.4073 38.2624 94.2755 37.9292C94.1413 37.5961 93.9354 37.2907 93.6671 37.0501C93.3964 36.8071 93.0633 36.6359 92.7071 36.5688C92.5613 36.5411 92.4156 36.5318 92.2698 36.5364C92.1241 36.5411 91.9437 36.548 91.8072 36.6035L90.794 37.0038C90.6274 37.0709 90.4585 37.1264 90.2874 37.1773C89.8154 37.3601 89.288 37.4619 88.7074 37.4619C88.4275 37.4619 88.1591 37.4364 87.9047 37.3925C87.8191 37.3832 87.7335 37.374 87.6479 37.3624L87.6595 37.3462C86.2322 37.0107 85.256 35.9812 84.8118 34.5861H96.4985C96.6072 34.0401 96.6443 33.457 96.6443 32.8393C96.6443 27.7771 93.5491 23.8093 88.5246 23.8093C83.5002 23.8093 79.8221 27.7794 79.8221 32.8393C79.8221 36.5202 81.8462 39.639 84.8951 41.0688C87.3472 41.9665 89.8386 41.9433 92.0801 41.1451M88.5223 28.2121C90.5603 28.2121 91.6545 29.4499 92.0547 31.1966H84.7725C85.2097 29.4499 86.4843 28.2121 88.5223 28.2121Z" fill="#3E474E"/>
<path d="M71.286 23.6265L70.6522 23.6659C70.6291 23.6682 70.6082 23.6705 70.5851 23.6751C70.444 23.6936 70.3052 23.7168 70.1687 23.7445C70.1433 23.7492 70.1201 23.7538 70.0947 23.7607C69.9582 23.7908 69.8264 23.8255 69.6945 23.8648C69.6714 23.8718 69.6482 23.8787 69.6251 23.8857C69.4909 23.9296 69.3614 23.9759 69.2318 24.0268C69.2133 24.0337 69.1948 24.0407 69.1763 24.0476C69.0375 24.1054 68.9034 24.1679 68.7692 24.2373C68.7622 24.242 68.7553 24.2443 68.7484 24.2466C68.177 24.545 67.6634 24.9383 67.2077 25.4103V24.3576C67.2077 24.0939 66.9949 23.881 66.7312 23.881H62.8426C62.5788 23.881 62.366 24.0939 62.366 24.3576V39.5025C62.366 39.5187 62.366 39.5326 62.366 39.5465C62.3868 39.7709 62.6136 41.4297 64.6307 41.4297H65.2206C67.3234 41.4297 67.2077 39.4099 67.2077 39.4099V31.8884C67.2077 29.3041 68.3736 28.1381 70.1201 28.1381C71.8667 28.1381 72.9238 29.1584 72.9238 31.7056V39.7153C72.9238 39.7547 72.9285 39.7917 72.9377 39.8287C73.0719 40.3701 73.5415 41.4251 75.1515 41.4251H75.7113C75.7322 41.4251 75.7507 41.4251 75.7715 41.4205C76.0283 41.3858 77.7678 41.0896 77.7678 39.4215V31.8838C77.7678 26.4954 75.2926 23.6173 71.2884 23.6173" fill="#3E474E"/>
<path d="M70.9021 23.6427C70.8257 23.6474 70.7517 23.6543 70.6777 23.6636C70.7517 23.6543 70.8257 23.6497 70.9021 23.6427Z" fill="#3E474E"/>
<path d="M26.7739 41.8369L27.4078 41.7976C27.4309 41.7953 27.454 41.793 27.4748 41.7883C27.616 41.7698 27.7548 41.749 27.8912 41.7189C27.9167 41.7143 27.9398 41.7097 27.9653 41.7027C28.1017 41.6727 28.2336 41.6379 28.3655 41.5986C28.3886 41.5917 28.4117 41.5847 28.4349 41.5778C28.569 41.5338 28.6986 41.4876 28.8281 41.4367C28.8466 41.4297 28.8651 41.4228 28.8836 41.4158C29.0224 41.358 29.1566 41.2955 29.2908 41.2261C29.2977 41.2215 29.3047 41.2192 29.3116 41.2169C29.883 40.9184 30.3965 40.5251 30.8522 40.0531V41.1058C30.8522 41.3696 31.0651 41.5824 31.3288 41.5824H35.2174C35.4811 41.5824 35.6939 41.3696 35.6939 41.1058V25.961C35.6939 25.9448 35.6939 25.9309 35.6939 25.917C35.6731 25.6926 35.4464 24.0337 33.4292 24.0337H32.8393C30.7366 24.0337 30.8522 26.0535 30.8522 26.0535V33.575C30.8522 36.1593 29.6863 37.3254 27.9398 37.3254C26.1933 37.3254 25.1361 36.3051 25.1361 33.7578V25.7481C25.1361 25.7088 25.1315 25.6718 25.1246 25.6347C24.9904 25.0934 24.5208 24.0384 22.9107 24.0384H22.3509C22.3301 24.0384 22.3116 24.0383 22.2885 24.043C22.0317 24.0777 20.2921 24.3738 20.2921 26.0419V33.5797C20.2921 38.968 22.7673 41.8462 26.7716 41.8462" fill="#3E474E"/>
<path d="M27.1579 41.8207C27.2342 41.8161 27.3083 41.8092 27.3823 41.7999C27.3083 41.8092 27.2319 41.8138 27.1579 41.8207Z" fill="#3E474E"/>
<path d="M106.596 30.5188C103.829 29.6813 103.318 29.244 103.283 28.5892C103.246 28.1149 103.721 27.2057 105.578 27.3515C106.415 27.4186 106.959 27.7702 107.292 28.1658C107.635 28.573 108.181 28.7419 108.692 28.5962L109.853 28.2653C110.804 27.9946 111.19 26.8563 110.6 26.0605C109.631 24.751 107.787 23.4901 104.921 23.4901C100.371 23.4901 98.4046 26.0396 98.2959 28.4782C98.1871 31.354 99.862 32.6658 103.683 34.0123C106.124 34.8499 106.961 34.9586 106.996 35.9419C107.033 36.8881 105.576 37.2167 104.266 37.145C103.378 37.0917 102.344 36.7031 101.692 36.1524C101.248 35.7776 100.623 35.7059 100.112 35.9812L98.8534 36.6568C98.0622 37.0802 97.8517 38.1329 98.4393 38.8131C99.7509 40.3285 102.3 41.5154 105.104 41.5154C109.145 41.5154 111.986 39.366 112.095 36.1987C112.203 33.5404 110.711 31.7913 106.596 30.5188Z" fill="#3E474E"/>
<path d="M122.373 30.5188C119.606 29.6813 119.095 29.244 119.06 28.5892C119.023 28.1149 119.497 27.2057 121.352 27.3515C122.192 27.4186 122.733 27.7702 123.069 28.1658C123.411 28.573 123.957 28.7419 124.468 28.5962L125.63 28.2653C126.58 27.9946 126.967 26.8563 126.377 26.0605C125.41 24.751 123.566 23.4901 120.698 23.4901C116.148 23.4901 114.181 26.0396 114.073 28.4782C113.964 31.354 115.639 32.6658 119.46 34.0123C121.901 34.8499 122.738 34.9586 122.773 35.9419C122.81 36.8881 121.352 37.2167 120.043 37.145C119.155 37.0917 118.121 36.7031 117.468 36.1524C117.024 35.7776 116.4 35.7059 115.888 35.9812L114.63 36.6568C113.839 37.0802 113.628 38.1329 114.216 38.8131C115.528 40.3285 118.077 41.5154 120.881 41.5154C124.922 41.5154 127.763 39.366 127.871 36.1987C127.98 33.5404 126.488 31.7913 122.373 30.5188Z" fill="#3E474E"/>
<path d="M99.7255 51.2232C96.7113 51.2232 94.4351 53.5877 94.4351 56.6023C94.4351 59.617 96.7113 62.0023 99.7255 62.0023C102.74 62.0023 105.016 59.617 105.016 56.6023C105.016 53.5877 102.74 51.2232 99.7255 51.2232ZM99.7255 59.3555C98.1641 59.3555 97.2549 58.1617 97.2549 56.6023C97.2549 55.043 98.1664 53.8468 99.7255 53.8468C101.285 53.8468 102.198 55.0383 102.198 56.6023C102.198 58.1663 101.287 59.3555 99.7255 59.3555Z" fill="#357DC0"/>
<path d="M125.13 61.5465C125.148 61.5396 125.167 61.5326 125.185 61.528L125.227 61.5095C125.371 61.4563 125.512 61.3938 125.65 61.329C125.884 61.2134 126.12 61.0676 126.296 60.8686C126.372 60.783 126.423 60.6789 126.462 60.5725C126.499 60.473 126.523 60.3666 126.532 60.2602C126.55 60.0473 126.516 59.8298 126.437 59.6309C126.358 59.4319 126.233 59.2491 126.074 59.108C125.912 58.9622 125.715 58.8604 125.502 58.8211C125.417 58.8049 125.329 58.798 125.241 58.8026C125.153 58.8049 125.047 58.8095 124.966 58.8419L124.362 59.0802C124.262 59.1196 124.163 59.152 124.061 59.182C123.779 59.2908 123.467 59.3509 123.12 59.3509C122.953 59.3509 122.794 59.3347 122.643 59.3093C122.592 59.3046 122.541 59.3 122.49 59.2908L122.497 59.2815C121.646 59.0825 121.066 58.4671 120.802 57.6389H127.762C127.827 57.3126 127.85 56.9656 127.85 56.5977C127.85 53.5831 126.007 51.2186 123.016 51.2186C120.025 51.2186 117.834 53.5831 117.834 56.5977C117.834 58.7887 119.039 60.6465 120.855 61.4979C122.317 62.0324 123.8 62.0185 125.135 61.5419M123.013 53.8469C124.228 53.8469 124.878 54.5849 125.116 55.6237H120.781C121.04 54.5826 121.799 53.8469 123.013 53.8469Z" fill="#357DC0"/>
<path d="M91.0831 57.109L90.5973 57.6551C89.8293 58.5227 88.7304 59.0409 87.3494 59.0409C84.5735 59.0409 82.9311 56.924 82.9565 54.1152C82.9866 51.3806 84.6221 49.333 87.3494 49.333C88.7304 49.333 89.8269 49.8536 90.5973 50.7212L91.0831 51.2672C92.0847 52.1348 93.5189 51.214 93.4727 50.0896H93.4796C93.4704 49.9276 93.3963 49.6014 93.0332 49.1155C92.9267 48.979 92.8157 48.8472 92.6977 48.7199L92.6653 48.6806C92.6491 48.6644 92.6353 48.6482 92.6191 48.632H92.6168C91.3236 47.2716 89.4985 46.4526 87.3517 46.4526C83.0606 46.4526 80.0973 49.7356 80.0071 53.9972H80.0024C80.0024 53.9972 80.0024 54.0111 80.0024 54.0181C80.0024 54.0852 80.0024 54.1523 80.0024 54.2194V54.2379C80.0256 58.5712 83.0097 61.9283 87.3494 61.9283C89.4961 61.9283 91.3213 61.107 92.6144 59.7466H92.6168C92.6329 59.7327 92.6468 59.7165 92.663 59.7003L92.6954 59.6609C92.8134 59.5337 92.9221 59.3995 93.0308 59.263C93.394 58.7772 93.468 58.4509 93.4773 58.2913H93.4704C93.5166 57.1623 92.0824 56.2414 91.0807 57.109" fill="#357DC0"/>
<path d="M115.1 46.6469C113.915 46.6469 113.682 47.2508 113.645 47.5932V52.2852C112.907 51.635 111.974 51.2232 110.848 51.2232C107.834 51.2232 105.883 53.5877 105.883 56.6024C105.883 59.617 107.834 62.0023 110.848 62.0023C111.977 62.0023 112.907 61.5905 113.645 60.9404C113.645 60.9404 113.647 60.9519 113.656 60.9728C113.714 61.1278 114.033 61.8126 115.083 61.8126C116.27 61.8126 116.55 60.908 116.529 60.5864V47.3896C116.52 47.2993 116.414 46.6515 115.1 46.6515M111.174 59.3555C109.612 59.3555 108.701 58.1617 108.701 56.6024C108.701 55.043 109.612 53.8469 111.174 53.8469C112.735 53.8469 113.647 55.0384 113.647 56.6024C113.647 58.1664 112.735 59.3555 111.174 59.3555Z" fill="#357DC0"/>
<path d="M124.399 11.8249L132.139 4.08354C132.84 3.38252 132.84 2.24422 132.139 1.54551L131.253 0.659403C130.552 -0.0416191 129.416 -0.0416191 128.715 0.659403L118.819 10.5547C118.118 11.2557 118.118 12.3917 118.819 13.0927L128.69 22.9649C129.391 23.6659 130.527 23.6659 131.228 22.9649L132.114 22.0788C132.815 21.3777 132.815 20.2418 132.114 19.5407L124.399 11.8249Z" fill="#357DC0"/>
<path d="M146.426 22.2638L136.555 12.3917C135.854 11.6907 134.719 11.6907 134.018 12.3917L133.132 13.2778C132.431 13.9788 132.431 15.1148 133.132 15.8158L140.844 23.5317L133.118 31.2591C132.417 31.9601 132.417 33.0961 133.118 33.7971L134.004 34.6833C134.705 35.3843 135.84 35.3843 136.541 34.6833L146.426 24.8019C147.127 24.1008 147.127 22.9648 146.426 22.2638Z" fill="#85BE41"/>
<path d="M121.463 0.101807H115.532H115.329H115.123V6.2398H115.942V0.920823H121.463V0.101807Z" fill="#85BE41"/>
<path d="M150 6.34159V0.409508V0.203597V0H143.863V0.819016H149.181V6.34159H150Z" fill="#85BE41"/>
<path d="M143.659 35.2917H149.591H149.796H150V29.1537H149.181V34.4727H143.659V35.2917Z" fill="#85BE41"/>
</g>
<defs>
<clipPath id="clip0_2_86">
<rect width="150" height="62" fill="white"/>
</clipPath>
</defs>
</svg>
