<svg xmlns="http://www.w3.org/2000/svg" width="12.379" height="12.379" viewBox="0 0 12.379 12.379">
  <path id="Icon_material-my-location" data-name="Icon material-my-location" d="M7.689,5.439A2.251,2.251,0,1,0,9.94,7.689,2.25,2.25,0,0,0,7.689,5.439Zm5.03,1.688A5.061,5.061,0,0,0,8.252,2.659V1.5H7.127V2.659A5.061,5.061,0,0,0,2.659,7.127H1.5V8.252H2.659A5.061,5.061,0,0,0,7.127,12.72v1.159H8.252V12.72A5.061,5.061,0,0,0,12.72,8.252h1.159V7.127Zm-5.03,4.5a3.939,3.939,0,1,1,3.939-3.939A3.936,3.936,0,0,1,7.689,11.628Z" transform="translate(-1.5 -1.5)" fill="#646464"/>
</svg>
