<svg xmlns="http://www.w3.org/2000/svg" width="11.23" height="17.969" viewBox="0 0 11.23 17.969">
  <g id="Group_53242" data-name="Group 53242" transform="translate(-96)">
    <path id="Path_54661" data-name="Path 54661" d="M103.721,17.969H99.51A3.514,3.514,0,0,1,96,14.459V3.51A3.514,3.514,0,0,1,99.51,0h4.211a3.514,3.514,0,0,1,3.51,3.51v10.95A3.514,3.514,0,0,1,103.721,17.969ZM99.51,1.4A2.108,2.108,0,0,0,97.4,3.51v10.95a2.108,2.108,0,0,0,2.106,2.106h4.211a2.108,2.108,0,0,0,2.106-2.106V3.51A2.108,2.108,0,0,0,103.721,1.4Z" fill="#bdbec0"/>
    <path id="Path_54662" data-name="Path 54662" d="M216.707,393.415h0a.707.707,0,0,1,0-1.415h0a.707.707,0,0,1,0,1.415Z" transform="translate(-115.092 -378.252)" fill="#bdbec0"/>
    <path id="Path_54663" data-name="Path 54663" d="M218.122,81.415h-1.415a.707.707,0,0,1,0-1.415h1.415a.707.707,0,0,1,0,1.415Z" transform="translate(-115.8 -77.194)" fill="#bdbec0"/>
  </g>
</svg>
