<svg xmlns="http://www.w3.org/2000/svg" width="22.955" height="22.971" viewBox="0 0 22.955 22.971">
  <path id="Path_54463" data-name="Path 54463" d="M23.143,17.673a5.3,5.3,0,0,1-5.3,5.3H5.452a5.3,5.3,0,0,1,0-10.6h.584a.9.9,0,0,1,0,1.8H5.452a3.5,3.5,0,0,0,0,7H17.845a3.5,3.5,0,0,0,0-7H17.4a.9.9,0,0,1,0-1.8h.449A5.3,5.3,0,0,1,23.143,17.673ZM6.53,8.469V7.256A3.6,3.6,0,0,1,9,3.845V2.677a2.694,2.694,0,0,1,5.388,0V3.86a3.6,3.6,0,0,1,2.425,3.4V8.469a3.6,3.6,0,0,1-3.592,3.592h-3.1A3.6,3.6,0,0,1,6.53,8.469ZM10.8,2.677v.988h1.8V2.677A.9.9,0,0,0,10.8,2.677ZM8.326,8.469a1.8,1.8,0,0,0,1.8,1.8h3.1a1.8,1.8,0,0,0,1.8-1.8V7.256a1.8,1.8,0,0,0-1.8-1.8h-3.1a1.8,1.8,0,0,0-1.8,1.8Zm2.425,9.2a1.123,1.123,0,1,1-1.123-1.123A1.123,1.123,0,0,1,10.751,17.673ZM5.587,16.551A1.123,1.123,0,1,0,6.71,17.673,1.123,1.123,0,0,0,5.587,16.551Zm8.082,0a1.123,1.123,0,1,0,1.123,1.123A1.123,1.123,0,0,0,13.669,16.551Zm4.041,0a1.123,1.123,0,1,0,1.123,1.123A1.123,1.123,0,0,0,17.71,16.551ZM11.649,6.763a1.123,1.123,0,1,0,1.123,1.123A1.123,1.123,0,0,0,11.649,6.763Z" transform="translate(-0.189 0)" fill="#bdbec0"/>
</svg>
