<svg xmlns="http://www.w3.org/2000/svg" width="22.235" height="21" viewBox="0 0 22.235 21">
  <g id="Group_53197" data-name="Group 53197" transform="translate(0 -16.032)">
    <path id="Path_54658" data-name="Path 54658" d="M18.761,37.031H3.474A3.506,3.506,0,0,1,.442,31.821l7.642-14,0-.007a3.465,3.465,0,0,1,6.059,0l0,.007,7.642,14a3.506,3.506,0,0,1-3.032,5.211ZM9.6,18.67l-7.641,14,0,.007a1.753,1.753,0,0,0,1.516,2.606H18.761a1.753,1.753,0,0,0,1.516-2.606l0-.007-7.641-14A1.733,1.733,0,0,0,9.6,18.67Z" transform="translate(0 0)" fill="#f7664b"/>
    <path id="Path_54659" data-name="Path 54659" d="M236.875,162.969a.875.875,0,0,1-.875-.875v-5.251a.875.875,0,0,1,1.75,0v5.251A.875.875,0,0,1,236.875,162.969Z" transform="translate(-225.757 -133.813)" fill="#f7664b"/>
    <circle id="Ellipse_1266" data-name="Ellipse 1266" cx="0.875" cy="0.875" r="0.875" transform="translate(10.243 30.906)" fill="#f7664b"/>
  </g>
</svg>
