<svg width="159" height="66" viewBox="0 0 159 66" fill="none" xmlns="http://www.w3.org/2000/svg">
<g clip-path="url(#clip0_22_1503)">
<path d="M49.2819 32.6702C46.3492 31.7786 45.8073 31.3132 45.7705 30.6162C45.7313 30.1113 46.2339 29.1434 48.2005 29.2985C49.0906 29.37 49.6644 29.7443 50.0199 30.163C50.3828 30.5965 50.9615 30.7763 51.5034 30.6211L52.7344 30.2689C53.7422 29.9808 54.1517 28.769 53.5264 27.9218C52.5014 26.5278 50.5471 25.1855 47.5066 25.1855C42.6833 25.1855 40.5991 27.8996 40.4838 30.4955C40.3686 33.5568 42.1439 34.9533 46.1947 36.3867C48.7816 37.2782 49.6693 37.394 49.7061 38.4407C49.7453 39.448 48.2005 39.7978 46.8126 39.7214C45.8735 39.6648 44.7749 39.251 44.0859 38.6648C43.6151 38.2634 42.9531 38.1895 42.4111 38.4826L41.0772 39.2017C40.2386 39.6524 40.0155 40.7731 40.6383 41.4971C42.0286 43.1103 44.7308 44.3738 47.7027 44.3738C51.9865 44.3738 54.9977 42.0858 55.1129 38.7141C55.2281 35.8843 53.6466 34.0223 49.2843 32.6677" fill="white"/>
<path d="M59.9729 17.0503C58.3521 17.0503 57.0795 18.3285 57.0795 19.9565C57.0795 21.5844 58.3521 22.8233 59.9729 22.8233C61.5937 22.8233 62.8296 21.545 62.8296 19.9565C62.8296 18.3679 61.557 17.0503 59.9729 17.0503Z" fill="white"/>
<path d="M59.2888 44.1052H60.6154C61.6673 44.1052 62.5182 43.2506 62.5182 42.194V27.3331C62.5182 26.2765 61.6673 25.4219 60.6154 25.4219H59.2888C58.2369 25.4219 57.386 26.2765 57.386 27.3331V42.194C57.386 43.2506 58.2369 44.1052 59.2888 44.1052Z" fill="white"/>
<path d="M19.2807 34.9284C19.2537 34.6994 19.2169 34.4753 19.1679 34.261C19.1605 34.229 19.1507 34.1994 19.1434 34.165C19.0968 33.9704 19.0404 33.7807 18.9791 33.596C18.9644 33.5566 18.9521 33.5148 18.9374 33.4754C18.8638 33.2759 18.7805 33.0813 18.6897 32.8941C18.6701 32.8547 18.648 32.8153 18.6284 32.7759C18.5402 32.606 18.4445 32.4385 18.3415 32.2784C18.3268 32.2562 18.3146 32.2316 18.2998 32.2119C18.1846 32.037 18.0571 31.872 17.9247 31.7095C17.8953 31.6725 17.8634 31.6356 17.8315 31.5986C17.6942 31.4386 17.5495 31.2834 17.3926 31.1356C17.3877 31.1307 17.3803 31.1233 17.373 31.1184C17.2209 30.9755 17.0591 30.8401 16.8924 30.7095C16.4534 30.3672 15.9679 30.0618 15.4358 29.8032C16.1298 29.1801 16.7207 28.4289 17.1474 27.594C17.1743 27.5398 17.2013 27.4857 17.2258 27.4315C17.2994 27.2763 17.3681 27.1187 17.4318 26.9586C17.449 26.9143 17.4686 26.8699 17.4858 26.8231C17.5593 26.6236 17.6206 26.4192 17.6746 26.2123C17.6868 26.1656 17.6942 26.1188 17.7064 26.072C17.7457 25.9045 17.7776 25.7346 17.7996 25.5622C17.8094 25.5006 17.8168 25.4415 17.8241 25.3824C17.8487 25.1656 17.8658 24.9464 17.8658 24.7248C17.8658 20.501 14.7787 16.9741 9.60724 16.9741H1.50067C0.671869 16.9741 0 17.6489 0 18.4814V42.6003C0 43.4327 0.671869 44.1076 1.50067 44.1076H10.3036C16.2475 44.1076 19.3346 40.5413 19.3346 35.8126C19.3346 35.5639 19.3199 35.3225 19.2954 35.0885C19.2905 35.0368 19.2856 34.9826 19.2807 34.9309M5.1322 26.0079V21.9343H9.72494C11.7307 21.9343 12.6184 23.2126 12.6184 24.7248C12.6184 26.237 11.7307 27.5152 9.72494 27.5152H5.1322V26.0079ZM10.3036 39.1818H5.1322V32.436H10.3036C12.6969 32.436 13.9695 33.8694 13.9695 35.8077C13.9695 37.746 12.6969 39.1794 10.3036 39.1794" fill="white"/>
<path d="M97.6026 43.7946C97.6344 43.7823 97.6688 43.7699 97.7006 43.7601L97.7766 43.7281C98.0317 43.632 98.2842 43.5212 98.5319 43.4054C98.9487 43.1961 99.368 42.94 99.6795 42.5853C99.8143 42.4326 99.9051 42.2479 99.9762 42.0583C100.042 41.8785 100.084 41.6913 100.101 41.4992C100.136 41.1174 100.072 40.7308 99.932 40.3761C99.7898 40.0215 99.5716 39.6964 99.2871 39.4402C99.0002 39.1816 98.6471 38.9994 98.2695 38.9279C98.115 38.8984 97.9606 38.8885 97.8061 38.8935C97.6516 38.8984 97.4603 38.9058 97.3157 38.9649L96.2416 39.391C96.0651 39.4624 95.8861 39.5215 95.7046 39.5757C95.2044 39.7702 94.6453 39.8786 94.0299 39.8786C93.7332 39.8786 93.4487 39.8515 93.179 39.8047C93.0883 39.7949 92.9976 39.785 92.9068 39.7727L92.9191 39.7555C91.4062 39.3984 90.3714 38.3024 89.9006 36.8173H102.288C102.404 36.236 102.443 35.6154 102.443 34.9578C102.443 29.569 99.1621 25.3452 93.8362 25.3452C88.5103 25.3452 84.6115 29.5715 84.6115 34.9578C84.6115 38.8762 86.757 42.1962 89.9889 43.7182C92.5881 44.6738 95.2289 44.6492 97.605 43.7995M93.8337 30.0321C95.994 30.0321 97.1538 31.3497 97.578 33.2092H89.8589C90.3223 31.3497 91.6734 30.0321 93.8337 30.0321Z" fill="white"/>
<path d="M75.5632 25.151L74.8913 25.1928C74.8668 25.1953 74.8447 25.1978 74.8202 25.2027C74.6706 25.2224 74.5235 25.247 74.3788 25.2766C74.3518 25.2815 74.3273 25.2864 74.3004 25.2938C74.1557 25.3258 74.0159 25.3628 73.8761 25.4046C73.8516 25.412 73.8271 25.4194 73.8026 25.4268C73.6604 25.4736 73.523 25.5229 73.3857 25.577C73.3661 25.5844 73.3465 25.5918 73.3269 25.5992C73.1798 25.6608 73.0375 25.7273 72.8953 25.8012C72.888 25.8061 72.8806 25.8086 72.8733 25.811C72.2676 26.1287 71.7232 26.5474 71.2402 27.0498V25.9292C71.2402 25.6485 71.0146 25.4219 70.735 25.4219H66.6131C66.3336 25.4219 66.108 25.6485 66.108 25.9292V42.0512C66.108 42.0684 66.108 42.0832 66.108 42.098C66.13 42.3369 66.3703 44.1028 68.5086 44.1028H69.1338C71.3628 44.1028 71.2402 41.9527 71.2402 41.9527V33.9459C71.2402 31.1948 72.476 29.9536 74.3273 29.9536C76.1786 29.9536 77.2992 31.0397 77.2992 33.7513V42.2778C77.2992 42.3196 77.3041 42.359 77.314 42.3984C77.4562 42.9748 77.954 44.0978 79.6606 44.0978H80.254C80.2761 44.0978 80.2957 44.0978 80.3178 44.0929C80.5899 44.056 82.4339 43.7407 82.4339 41.965V33.9409C82.4339 28.2049 79.8102 25.1411 75.5656 25.1411" fill="white"/>
<path d="M75.1562 25.168C75.0753 25.1729 74.9968 25.1803 74.9183 25.1901C74.9968 25.1803 75.0753 25.1754 75.1562 25.168Z" fill="#3E474E"/>
<path d="M28.3804 44.5363L29.0522 44.4944C29.0768 44.4919 29.1013 44.4895 29.1233 44.4845C29.2729 44.4648 29.42 44.4427 29.5647 44.4107C29.5917 44.4057 29.6162 44.4008 29.6432 44.3934C29.7879 44.3614 29.9276 44.3245 30.0674 44.2826C30.0919 44.2752 30.1164 44.2678 30.141 44.2604C30.2832 44.2136 30.4205 44.1644 30.5578 44.1102C30.5774 44.1028 30.597 44.0954 30.6167 44.088C30.7638 44.0264 30.906 43.9599 31.0482 43.8861C31.0556 43.8811 31.0629 43.8787 31.0703 43.8762C31.676 43.5585 32.2203 43.1398 32.7034 42.6374V43.758C32.7034 44.0388 32.929 44.2653 33.2085 44.2653H37.3304C37.61 44.2653 37.8356 44.0388 37.8356 43.758V27.636C37.8356 27.6188 37.8356 27.604 37.8356 27.5892C37.8135 27.3504 37.5732 25.5845 35.435 25.5845H34.8097C32.5808 25.5845 32.7034 27.7346 32.7034 27.7346V35.7413C32.7034 38.4924 31.4675 39.7337 29.6162 39.7337C27.7649 39.7337 26.6443 38.6475 26.6443 35.9359V27.4095C26.6443 27.3676 26.6394 27.3282 26.632 27.2888C26.4898 26.7125 25.992 25.5894 24.2854 25.5894H23.692C23.6699 25.5894 23.6503 25.5894 23.6258 25.5943C23.3536 25.6313 21.5096 25.9465 21.5096 27.7222V35.7463C21.5096 41.4823 24.1334 44.5461 28.3779 44.5461" fill="white"/>
<path d="M28.7874 44.5187C28.8683 44.5138 28.9467 44.5064 29.0252 44.4966C28.9467 44.5064 28.8658 44.5114 28.7874 44.5187Z" fill="#3E474E"/>
<path d="M112.992 32.4876C110.059 31.596 109.517 31.1305 109.48 30.4335C109.441 29.9286 109.944 28.9607 111.913 29.1159C112.8 29.1873 113.377 29.5617 113.73 29.9828C114.093 30.4163 114.671 30.5961 115.213 30.4409L116.444 30.0887C117.452 29.8006 117.861 28.5888 117.236 27.7416C116.209 26.3476 114.254 25.0054 111.216 25.0054C106.393 25.0054 104.309 27.7195 104.194 30.3153C104.078 33.3767 105.854 34.7731 109.904 36.2065C112.491 37.0981 113.379 37.2138 113.416 38.2605C113.455 39.2679 111.91 39.6176 110.522 39.5412C109.581 39.4846 108.485 39.0708 107.793 38.4847C107.322 38.0857 106.66 38.0093 106.118 38.3024L104.785 39.0216C103.946 39.4723 103.723 40.5929 104.346 41.317C105.736 42.9301 108.438 44.1936 111.41 44.1936C115.694 44.1936 118.705 41.9056 118.82 38.5339C118.935 35.7041 117.354 33.8422 112.992 32.4876Z" fill="white"/>
<path d="M129.715 32.4876C126.782 31.596 126.24 31.1305 126.204 30.4335C126.164 29.9286 126.667 28.9607 128.634 29.1159C129.524 29.1873 130.097 29.5617 130.453 29.9828C130.816 30.4163 131.395 30.5961 131.936 30.4409L133.167 30.0887C134.175 29.8006 134.585 28.5888 133.959 27.7416C132.934 26.3476 130.98 25.0054 127.94 25.0054C123.116 25.0054 121.032 27.7195 120.917 30.3153C120.802 33.3767 122.577 34.7731 126.628 36.2065C129.215 37.0981 130.102 37.2138 130.139 38.2605C130.178 39.2679 128.634 39.6176 127.246 39.5412C126.304 39.4846 125.208 39.0708 124.517 38.4847C124.046 38.0857 123.384 38.0093 122.842 38.3024L121.508 39.0216C120.669 39.4723 120.446 40.5929 121.069 41.317C122.459 42.9301 125.161 44.1936 128.133 44.1936C132.417 44.1936 135.428 41.9056 135.544 38.5339C135.659 35.7041 134.077 33.8422 129.715 32.4876Z" fill="white"/>
<path d="M105.709 54.5278C102.514 54.5278 100.101 57.0449 100.101 60.254C100.101 63.4631 102.514 66.0023 105.709 66.0023C108.904 66.0023 111.317 63.4631 111.317 60.254C111.317 57.0449 108.904 54.5278 105.709 54.5278ZM105.709 63.1848C104.054 63.1848 103.09 61.914 103.09 60.254C103.09 58.594 104.056 57.3207 105.709 57.3207C107.362 57.3207 108.33 58.5891 108.33 60.254C108.33 61.9189 107.364 63.1848 105.709 63.1848Z" fill="#357DC0"/>
<path d="M132.638 65.5172C132.657 65.5098 132.677 65.5024 132.697 65.4975L132.741 65.4778C132.893 65.4211 133.042 65.3546 133.189 65.2857C133.437 65.1625 133.687 65.0074 133.874 64.7956C133.954 64.7045 134.008 64.5936 134.05 64.4803C134.089 64.3744 134.114 64.2611 134.124 64.1478C134.143 63.9213 134.107 63.6897 134.023 63.4779C133.94 63.2661 133.807 63.0716 133.638 62.9213C133.467 62.7662 133.258 62.6578 133.033 62.6159C132.942 62.5987 132.849 62.5913 132.755 62.5962C132.662 62.5987 132.549 62.6036 132.464 62.6381L131.824 62.8918C131.718 62.9337 131.613 62.9681 131.505 63.0001C131.206 63.1159 130.875 63.1799 130.507 63.1799C130.33 63.1799 130.161 63.1627 130.002 63.1356C129.948 63.1307 129.894 63.1258 129.84 63.1159L129.847 63.1061C128.945 62.8942 128.329 62.2391 128.05 61.3574H135.428C135.497 61.0101 135.521 60.6407 135.521 60.2491C135.521 57.04 133.567 54.5229 130.397 54.5229C127.226 54.5229 124.904 57.04 124.904 60.2491C124.904 62.5815 126.181 64.5591 128.106 65.4655C129.656 66.0344 131.228 66.0196 132.643 65.5123M130.394 57.3208C131.681 57.3208 132.37 58.1064 132.623 59.2123H128.028C128.302 58.104 129.107 57.3208 130.394 57.3208Z" fill="#357DC0"/>
<path d="M96.5481 60.7937L96.0331 61.3749C95.219 62.2985 94.0543 62.8502 92.5904 62.8502C89.6479 62.8502 87.9069 60.5967 87.9339 57.6067C87.9658 54.6956 89.6994 52.516 92.5904 52.516C94.0543 52.516 95.2166 53.0701 96.0331 53.9937L96.5481 54.5749C97.6098 55.4985 99.1301 54.5183 99.0811 53.3213H99.0884C99.0786 53.1489 99.0001 52.8017 98.6152 52.2845C98.5024 52.1392 98.3847 51.9988 98.2596 51.8633L98.2253 51.8215C98.2081 51.8042 98.1934 51.787 98.1762 51.7697H98.1738C96.8031 50.3216 94.8684 49.4497 92.5929 49.4497C88.0443 49.4497 84.9031 52.9445 84.8075 57.4811H84.8026C84.8026 57.4811 84.8026 57.4959 84.8026 57.5033C84.8026 57.5747 84.8026 57.6461 84.8026 57.7176V57.7373C84.8271 62.3502 87.9903 65.9239 92.5904 65.9239C94.8659 65.9239 96.8006 65.0495 98.1713 63.6014H98.1738C98.191 63.5866 98.2057 63.5693 98.2228 63.5521L98.2572 63.5102C98.3822 63.3748 98.4975 63.2319 98.6127 63.0866C98.9977 62.5694 99.0762 62.2222 99.086 62.0522H99.0786C99.1276 60.8503 97.6074 59.8701 96.5456 60.7937" fill="#357DC0"/>
<path d="M122.006 49.6562C120.75 49.6562 120.502 50.2991 120.463 50.6636V55.6583C119.681 54.9662 118.693 54.5278 117.499 54.5278C114.304 54.5278 112.237 57.0449 112.237 60.254C112.237 63.4631 114.304 66.0023 117.499 66.0023C118.695 66.0023 119.681 65.5639 120.463 64.8719C120.463 64.8719 120.466 64.8842 120.475 64.9063C120.537 65.0714 120.875 65.8004 121.988 65.8004C123.246 65.8004 123.543 64.8374 123.521 64.495V50.4468C123.511 50.3508 123.398 49.6612 122.006 49.6612M117.844 63.1848C116.189 63.1848 115.223 61.914 115.223 60.254C115.223 58.594 116.189 57.3207 117.844 57.3207C119.5 57.3207 120.466 58.5891 120.466 60.254C120.466 61.9189 119.5 63.1848 117.844 63.1848Z" fill="#357DC0"/>
<path d="M131.863 12.5876L140.068 4.34683C140.81 3.60058 140.81 2.38884 140.068 1.64506L139.128 0.701777C138.385 -0.0444726 137.181 -0.0444726 136.438 0.701777L125.948 11.2355C125.205 11.9817 125.205 13.191 125.948 13.9372L136.411 24.4463C137.154 25.1926 138.358 25.1926 139.101 24.4463L140.041 23.503C140.784 22.7568 140.784 21.5475 140.041 20.8013L131.863 12.5876Z" fill="#357DC0"/>
<path d="M155.212 23.7001L144.749 13.191C144.006 12.4448 142.802 12.4448 142.059 13.191L141.12 14.1343C140.377 14.8806 140.377 16.0898 141.12 16.8361L149.295 25.0498L141.105 33.2757C140.362 34.022 140.362 35.2313 141.105 35.9775L142.044 36.9208C142.787 37.667 143.991 37.667 144.734 36.9208L155.212 26.4019C155.955 25.6556 155.955 24.4464 155.212 23.7001Z" fill="#85BE41"/>
<path d="M128.751 0.108398H122.464H122.248H122.03V6.64239H122.898V0.980255H128.751V0.108398Z" fill="#85BE41"/>
<path d="M159 6.75073V0.435928V0.216733V0H152.495V0.871856H158.132V6.75073H159Z" fill="#85BE41"/>
<path d="M152.279 37.5687H158.566H158.784H159V31.0347H158.132V36.6968H152.279V37.5687Z" fill="#85BE41"/>
</g>
<defs>
<clipPath id="clip0_22_1503">
<rect width="159" height="66" fill="white"/>
</clipPath>
</defs>
</svg>
